PathFileType	4	(X/Y/Z)	 s07c0201.trc
DataRate	CameraRate	NumFrames	NumMarkers	Units	OrigDataRate	OrigDataStartFrame	OrigNumFrames
200	200	4	48	mm	200	1001	2000
Frame#	Time	racr			lacr			c7			jug			rlel			rdr			llel			ldr			s2			lic			ric			lasi			rasi			rpsi			lpsi			rgt			lgt			rth1			rth2			rth3			rth4			rlfc			rmfc			rsh1			rsh2			rsh3			rsh4			rlmal			rcal			rtoe			rmt5			lth1			lth2			lth4			lth3			llfc			lmfc			lsh1			lsh2			lsh3			lsh4			llmal			lcal			ltoe			lmt5			SBIKE			LBIKE			RBIKE			
		X1	Y1	Z1	X2	Y2	Z2	X3	Y3	Z3	X4	Y4	Z4	X5	Y5	Z5	X6	Y6	Z6	X7	Y7	Z7	X8	Y8	Z8	X9	Y9	Z9	X10	Y10	Z10	X11	Y11	Z11	X12	Y12	Z12	X13	Y13	Z13	X14	Y14	Z14	X15	Y15	Z15	X16	Y16	Z16	X17	Y17	Z17	X18	Y18	Z18	X19	Y19	Z19	X20	Y20	Z20	X21	Y21	Z21	X22	Y22	Z22	X23	Y23	Z23	X24	Y24	Z24	X25	Y25	Z25	X26	Y26	Z26	X27	Y27	Z27	X28	Y28	Z28	X29	Y29	Z29	X30	Y30	Z30	X31	Y31	Z31	X32	Y32	Z32	X33	Y33	Z33	X34	Y34	Z34	X35	Y35	Z35	X36	Y36	Z36	X37	Y37	Z37	X38	Y38	Z38	X39	Y39	Z39	X40	Y40	Z40	X41	Y41	Z41	X42	Y42	Z42	X43	Y43	Z43	X44	Y44	Z44	X45	Y45	Z45	X46	Y46	Z46	X47	Y47	Z47	X48	Y48	Z48	
1001	5.0050	423.108568	1456.129229	-67.324960	448.187558	1457.079205	-350.357633	399.806804	1520.665706	-209.818873	355.298940	1373.178058	-221.851091	442.511028	1106.427988	34.123307	691.408277	955.474631	-50.032576	480.438519	1160.097794	-532.014512	680.029717	953.612707	-418.076480	-140.899850	1204.667620	-256.358090	6.723712	1279.055685	-403.239248	17.945035	1270.013226	-108.660830	45.992815	1202.368304	-383.192586	43.522005	1224.875221	-132.553296	-120.298345	1247.773611	-207.657350	-112.001532	1258.177600	-316.474591	-3.335230	1151.778756	-65.133369	-37.313566	1109.896662	-422.444193	135.951792	1103.603016	-69.526946	222.283186	1090.542423	-81.191786	292.119212	1041.718475	-78.101547	232.232612	1119.940147	-100.081710	402.425200	952.538744	-112.532460	391.881045	934.994837	-218.383326	312.975022	847.524616	-87.576259	272.074282	769.384623	-98.185984	199.562093	721.655908	-90.665054	286.556020	757.743964	-134.271466	104.412765	624.323086	-84.742111	31.385497	641.079277	-117.718225	210.830064	411.557702	-119.179564	134.418947	450.866008	-52.551054	12.602434	996.709897	-437.108375	70.323220	930.186591	-444.554804	103.370103	945.962416	-439.280091	88.021195	842.995280	-438.747859	167.680381	692.171911	-404.403888	162.052020	673.744664	-313.845338	148.916814	547.711804	-426.214785	167.344603	466.069986	-406.416277	141.730949	379.136957	-409.650986	170.633180	469.694585	-364.020770	129.271106	243.322027	-400.046493	65.007948	199.540492	-368.544670	355.156861	207.997536	-352.975796	280.387505	172.900166	-421.183156	-259.517306	977.032066	-233.250288	-76.182406	83.286238	-435.761170	-82.036608	79.855172	-38.367120	
1002	5.0100	419.661842	1458.706946	-64.101288	450.378451	1456.107166	-347.162175	399.729341	1521.204566	-207.836618	354.720389	1373.779328	-218.620193	442.469081	1108.001105	33.842605	691.586017	956.319934	-50.013542	481.560123	1160.372714	-532.301141	681.191754	954.068050	-418.198032	-139.970454	1204.665964	-259.309992	9.654981	1277.445034	-406.315255	17.065134	1271.816288	-110.807045	48.253761	1200.936318	-384.689552	43.362820	1226.237234	-134.706318	-120.056953	1248.450135	-210.942674	-110.486078	1257.486511	-320.099356	-3.234283	1154.882934	-66.699819	-35.815387	1108.763011	-423.869305	136.494043	1108.594758	-71.037431	222.809762	1097.288660	-82.603464	293.563692	1049.480216	-79.337948	232.249948	1126.472452	-101.674049	405.427992	960.908319	-113.314187	395.142286	943.096024	-219.364540	317.942854	855.188104	-87.522930	277.542972	776.791798	-98.260319	205.330404	728.729948	-90.556140	292.119101	765.234927	-134.595152	110.787282	629.599159	-84.046044	37.011973	644.800884	-117.269516	220.864623	418.628367	-120.021763	144.195538	456.624179	-52.551962	11.512555	995.340907	-438.782049	67.776906	927.647837	-446.597513	101.085417	942.690576	-441.195503	83.545333	840.040275	-440.918940	160.674822	688.070227	-404.924198	154.903355	669.851870	-314.119902	141.591934	543.893073	-426.582166	159.652657	462.264875	-406.758214	133.715766	375.345246	-409.979084	162.970551	465.824983	-364.356245	120.681687	239.662627	-400.259899	56.147027	196.600221	-368.940506	346.151558	202.218120	-352.994358	278.803499	161.366534	-415.145475	-259.543063	977.025182	-233.313159	-76.164855	83.282827	-435.774109	-82.033094	79.863726	-38.375030	
1003	5.0150	416.159689	1461.301187	-61.009950	452.485638	1454.752476	-343.826934	399.506750	1521.678623	-205.811995	353.984993	1374.329265	-215.309056	442.548276	1109.705472	33.557589	691.710142	957.138020	-50.105971	482.836995	1160.622685	-532.521375	682.272484	954.374196	-418.327510	-139.208712	1204.905491	-262.225506	12.434319	1275.881702	-409.166560	16.053333	1273.691367	-112.927053	50.384074	1199.656902	-386.163944	43.040898	1227.649874	-136.743415	-119.674438	1249.096540	-214.342023	-109.206908	1257.094694	-323.568573	-3.255694	1157.977819	-68.201944	-34.369146	1107.805615	-425.213361	136.589045	1113.997181	-72.396696	223.189970	1103.645864	-83.987912	294.741249	1057.012426	-80.560686	233.194668	1132.661562	-105.222225	408.535532	969.862511	-114.238643	397.669651	950.638020	-220.615086	322.796048	862.773291	-87.314089	282.875754	783.727632	-98.418092	211.131592	734.819852	-90.819805	297.365604	772.390802	-134.910382	116.985555	634.091631	-83.603728	43.109412	647.878377	-116.408837	231.336876	425.774026	-120.252402	154.224157	461.883607	-52.624153	10.801131	994.313954	-440.326228	65.690435	925.559606	-448.406194	99.349443	939.860410	-442.794368	79.803542	837.603377	-442.724252	154.362169	684.070322	-405.005468	148.200744	666.414149	-313.975509	134.657608	540.804651	-426.806785	152.121690	459.009946	-406.797259	125.706362	372.297416	-410.093207	155.566683	462.654527	-364.519045	111.799516	236.651864	-400.302330	46.867059	194.334683	-369.089289	336.972561	196.765307	-352.951319	261.523768	163.026969	-421.251686	-259.567933	976.993183	-233.305837	-76.165130	83.293002	-435.758405	-82.029735	79.858437	-38.368510	
1004	5.0200	413.058419	1463.229034	-58.100764	454.538912	1453.092830	-340.377864	399.315223	1521.914050	-203.759972	353.299920	1374.666575	-212.304006	442.554568	1111.563956	33.150576	691.756245	957.757724	-50.249607	484.122198	1160.772081	-532.843926	683.409975	954.631942	-418.418671	-138.616421	1205.266269	-264.885769	13.663681	1273.353484	-408.517726	14.971537	1275.612424	-114.881507	52.341410	1198.561674	-387.663885	42.521341	1229.027815	-138.553587	-119.406201	1249.893567	-217.643009	-108.176784	1256.929735	-326.841769	-3.627791	1161.101874	-69.637471	-33.070931	1107.021017	-426.542035	136.664772	1119.050015	-73.612230	223.248566	1109.883973	-85.437409	295.513003	1064.457262	-81.746081	232.748994	1138.862987	-107.453553	410.604926	978.157658	-115.071999	400.608109	958.481546	-221.281604	327.074934	869.285995	-87.807179	287.923910	790.310188	-98.733025	216.607384	740.710073	-90.939654	302.316112	779.068819	-135.350465	123.431502	637.692221	-83.368524	49.027785	650.177128	-115.514797	241.869007	431.715853	-120.789921	164.401785	466.528343	-52.702150	10.392555	993.563291	-441.618288	64.181646	923.853940	-449.792655	98.033721	937.584965	-444.060080	76.732605	835.588077	-444.177079	148.897749	681.510266	-405.189758	142.491164	663.343356	-313.808655	128.148494	538.294917	-426.705590	144.822469	456.423713	-406.664793	117.628164	369.944900	-410.176172	148.739548	460.115104	-364.223644	102.660773	234.366023	-400.263445	37.424636	192.687842	-369.116270	327.470414	192.016274	-352.930080	251.762473	159.158046	-421.138850	-259.603289	976.995960	-233.355899	-76.174720	83.296633	-435.746238	-82.031674	79.847401	-38.376550	
